<?xml version="1.0" encoding="UTF-8" standalone="no"?>
<!-- Created with Inkscape (http://www.inkscape.org/) -->

<svg
   xmlns:dc="http://purl.org/dc/elements/1.1/"
   xmlns:cc="http://creativecommons.org/ns#"
   xmlns:rdf="http://www.w3.org/1999/02/22-rdf-syntax-ns#"
   xmlns:svg="http://www.w3.org/2000/svg"
   xmlns="http://www.w3.org/2000/svg"
   xmlns:sodipodi="http://sodipodi.sourceforge.net/DTD/sodipodi-0.dtd"
   xmlns:inkscape="http://www.inkscape.org/namespaces/inkscape"
   width="210mm"
   height="297mm"
   viewBox="0 0 210 297"
   id="svg6710"
   version="1.1"
   inkscape:version="0.91 r13725"
   sodipodi:docname="logo(not used).svg">
  <defs
     id="defs3" />
  <sodipodi:namedview
     inkscape:document-units="mm"
     id="base"
     pagecolor="#ffffff"
     bordercolor="#666666"
     borderopacity="1.0"
     inkscape:pageopacity="0.0"
     inkscape:pageshadow="2"
     inkscape:zoom="0.35"
     inkscape:cx="-352.85714"
     inkscape:cy="520"
     inkscape:current-layer="layer1"
     showgrid="false" />
  <metadata
     id="metadata4">
    <rdf:RDF>
      <cc:Work
         rdf:about="">
        <dc:format>image/svg+xml</dc:format>
        <dc:type
           rdf:resource="http://purl.org/dc/dcmitype/StillImage" />
        <dc:title></dc:title>
      </cc:Work>
    </rdf:RDF>
  </metadata>
  <g
     inkscape:label="Layer 1"
     inkscape:groupmode="layer"
     id="layer1">
    <g
       id="g7521">
      <path
         inkscape:connector-curvature="0"
         id="path4824"
         d="m 105.52697,64.83889 c -0.26232,-0.0028 -0.52553,-0.0025 -0.78988,5.64e-4 -33.838673,0.405209 -50.637386,47.627506 -50.637386,84.470986 0,36.84349 16.557272,82.85262 50.799996,82.85262 11.61743,0 21.21981,-5.22244 28.84069,-13.57533 -0.52237,0.12204 -0.93605,0.20836 -1.06274,0.20836 -0.57697,0.082 -1.35769,0.14388 -1.98989,0.0253 -0.2827,-0.053 -0.79889,-0.31739 -1.1592,-0.60083 -0.92117,-0.72459 -1.32018,-2.32464 -1.32018,-5.29276 0,-2.41035 0.0417,-2.59033 0.72542,-3.12815 0.99439,-0.78219 2.84551,-1.00574 5.09158,-0.61461 1.03671,0.18054 1.98066,0.22632 2.09736,0.10143 0.25614,-0.27412 -1.16002,-13.35044 -1.44583,-13.35044 -0.11032,0 -0.71958,1.01519 -1.35379,2.25613 -1.43848,2.81456 -3.0752,5.44982 -5.08497,8.1861 -1.79372,2.44214 -7.23233,7.95365 -8.4898,8.60391 -0.57752,0.29865 -0.85327,0.65338 -0.85327,1.09637 0,0.95943 -0.92307,1.63546 -2.45844,1.80137 -0.7436,0.0804 -2.68506,0.60451 -4.31493,1.16472 -2.88761,0.99254 -3.07145,1.01834 -7.19663,1.01975 -3.91299,0.001 -4.41492,-0.0595 -6.632255,-0.80588 -7.181455,-2.41726 -13.48438,-7.7461 -18.905559,-15.98469 -2.388644,-3.63001 -5.896525,-10.87346 -7.479453,-15.44285 -0.0909,-0.26227 -0.353511,-0.24507 -1.110149,0.0711 -1.244544,0.52001 -1.430585,0.51689 -1.977193,-0.0298 -0.967006,-0.96698 -0.350915,-2.64895 1.336125,-3.64849 0.445685,-0.26406 0.443794,-0.39116 -0.03308,-1.97555 l -0.509863,-1.69334 -1.225353,-0.0474 c -1.560152,-0.0599 -3.215498,-1.18344 -4.452168,-3.02176 -1.204976,-1.79123 -1.604659,-3.25411 -1.590266,-5.82084 0.0175,-3.11665 0.840091,-5.11419 3.486997,-8.46666 0.51212,-0.64861 0.531029,-0.86499 0.237038,-2.68111 -0.464566,-2.86928 -0.465638,-19.79971 -0.0028,-23.84778 0.828181,-7.22679 1.993759,-13.76192 3.407043,-19.10126 3.144238,-11.87872 8.261407,-22.215296 14.590127,-29.470729 0.800495,-0.917742 0.87472,-1.155966 0.752969,-2.423143 -0.200632,-2.088123 0.856206,-3.807308 2.632597,-4.282392 0.732903,-0.196006 0.816328,-0.369443 1.159764,-2.402747 0.56357,-3.336745 1.267686,-4.408619 2.893878,-4.408619 0.843647,0 1.248156,0.2261 2.272651,1.27 0.685518,0.6985 1.389888,1.27 1.565459,1.27 0.17557,0 0.723815,-0.4445 1.218184,-0.987778 0.494368,-0.54328 1.091522,-0.987777 1.326783,-0.987777 0.619506,0 2.438574,0.976638 3.023394,1.623328 0.44836,0.495791 0.77828,0.540867 3.10444,0.423333 3.45471,-0.174554 7.71006,0.834113 11.35174,2.690481 7.60651,3.877465 14.38151,11.667986 19.40442,22.312643 3.69759,7.83593 6.85063,18.69846 8.08137,27.84244 0.16714,1.24177 0.43262,3.17107 0.59036,4.28735 0.15773,1.11629 0.2998,2.76729 0.31529,3.66889 0.0469,2.73487 0.22073,3.05042 1.6812,3.05042 0.68964,0 1.39407,0.0913 1.56546,0.20285 0.17139,0.11159 0.39649,1.31809 0.49996,2.68111 0.10346,1.36303 0.36943,3.16469 0.59145,4.00403 0.49183,1.85941 0.2402,2.47071 -1.12228,2.72631 -1.39023,0.26081 -1.75418,0.0344 -2.16408,-1.34497 -0.34214,-1.15145 -0.36949,-0.99575 -0.53357,3.01956 -0.0951,2.32833 -0.13062,4.3154 -0.0788,4.41579 0.0518,0.10037 0.86814,-0.0584 1.81404,-0.35278 2.36804,-0.73701 3.0318,-0.69998 3.36959,0.18851 0.4666,1.22724 0.32258,1.8158 -0.56941,2.32338 l -0.845,0.48066 -0.0116,5.08 c -0.0141,6.14421 -0.43096,8.80328 -1.82124,11.61631 -1.1106,2.24716 -2.48259,3.61372 -4.77573,4.75643 l -1.42376,0.70942 -1.0655,3.28855 c -1.14904,3.54613 -1.20602,3.99936 -0.79542,6.32244 1.02312,5.78835 1.60943,9.86648 1.86202,12.95355 0.10705,1.279 0.58355,3.53089 1.04123,4.11979 0.0288,0.0288 0.18514,-0.007 0.39192,-0.0717 9.72326,-16.38889 14.53225,-38.66831 14.53225,-58.65096 0,-37.02363 -17.05622,-84.332127 -50.37447,-84.673277 z"
         style="display:inline;fill:#ff00ff;fill-opacity:1;fill-rule:evenodd;stroke:#000000;stroke-width:0;stroke-linecap:butt;stroke-linejoin:miter;stroke-miterlimit:4;stroke-dasharray:none;stroke-opacity:1" />
      <path
         inkscape:connector-curvature="0"
         id="path4822"
         d="m 91.32933,75.196225 c -0.855189,0.168252 -1.53035,1.501662 -1.820672,3.596679 -0.375863,2.712351 -0.658622,3.407614 -1.387404,3.407614 -1.980495,0 -3.225574,2.83769 -2.105096,4.797777 0.221855,0.388056 0.407924,1.432882 0.413428,2.322269 0.01129,1.834636 0.677023,3.77068 1.436454,4.177109 0.281573,0.150695 0.89789,0.273956 1.369766,0.273956 0.681708,0 0.955012,0.187471 1.330085,0.912811 0.618377,1.195798 0.579882,3.947809 -0.0937,6.70719 l -0.516495,2.11667 -2.548805,0.14221 c -3.007219,0.168 -3.650742,0.50169 -5.054092,2.61772 -1.376172,2.07499 -2.252698,4.39035 -2.961696,7.8234 -0.336579,1.62984 -1.128043,4.36033 -1.758358,6.06778 -0.731407,1.98122 -1.195634,3.77118 -1.283236,4.9477 -0.195806,2.6293 0.240341,3.06018 5.927767,5.85611 2.521966,1.23981 4.839575,2.33737 5.149991,2.43913 0.310473,0.10175 1.341318,0.71672 2.290855,1.36646 l 1.726409,1.18126 0.167584,2.26439 c 0.245787,3.32371 0.882622,5.40151 2.294692,7.48606 0.683458,1.00895 1.837154,2.95358 2.564271,4.32152 0.991616,1.86564 1.431968,2.44493 1.76166,2.31841 0.241751,-0.0928 1.497527,-0.44894 2.790812,-0.79154 3.44622,-0.91293 3.36073,-1.03375 3.23122,4.55469 -0.058,2.50491 0.005,4.55423 0.14111,4.55414 0.13566,-8e-5 0.95304,-0.79384 1.81627,-1.76389 2.19464,-2.46623 4.49845,-5.44822 4.49845,-5.82304 0,-0.17325 -0.36782,-0.31474 -0.81689,-0.31474 -0.48418,0 -0.88621,-0.18175 -0.98778,-0.44649 -0.24209,-0.63088 -0.20464,-1.88611 0.0689,-2.3173 0.1272,-0.20052 1.68092,-0.68786 3.45282,-1.08314 1.77188,-0.39529 3.30923,-0.80295 3.41644,-0.90565 0.10719,-0.1027 0.40719,-1.43438 0.66642,-2.95947 0.4404,-2.59137 0.44012,-2.88699 0,-4.51556 -1.06991,-3.94801 -1.74233,-5.5334 -3.47046,-8.17948 -1.83352,-2.80746 -2.41825,-4.10917 -2.08636,-4.6462 0.0996,-0.16125 1.78012,-0.81349 3.73394,-1.44914 3.10521,-1.01025 3.87799,-1.15535 6.13833,-1.15535 2.1099,0 2.67894,0.0932 3.09178,0.50602 0.36045,0.36045 0.69122,1.67934 1.15039,4.58611 0.35447,2.24408 1.00849,6.17559 1.45353,8.73676 0.44507,2.56117 0.95673,5.58939 1.13719,6.72924 l 0.32797,2.07202 0.958,-0.92825 c 0.52683,-0.5106 0.96246,-1.12582 0.96847,-1.36701 0.006,-0.24119 -0.71478,-4.84248 -1.60237,-10.2256 l -1.61394,-9.78793 1.02249,-1.13164 c 1.00733,-1.115 1.58713,-2.78929 1.18897,-3.43352 -0.32269,-0.52212 -1.99568,-1.11842 -3.13805,-1.11842 -0.57543,0 -1.96743,0.31766 -3.09288,0.70611 -1.12544,0.38845 -2.99926,0.88886 -4.16444,1.1118 -1.16518,0.22294 -2.96596,0.66673 -4.00183,0.98668 -1.03587,0.31993 -2.43594,0.58208 -3.11105,0.58208 -1.16989,0 -1.23587,-0.0445 -1.4056,-0.94919 -0.13979,-0.74515 0.005,-1.27605 0.67248,-2.46945 2.0688,-3.69743 1.18536,-6.88258 -2.22304,-8.01467 -1.5584,-0.51761 -2.94169,-1.96234 -5.06293,-5.28836 -1.20026,-1.88197 -1.22978,-1.905 -2.46394,-1.905 -0.68707,0 -1.481609,-0.12421 -1.765525,-0.27616 -0.995539,-0.53279 -1.598817,-3.67495 -0.705555,-3.67495 0.927523,0 2.66906,-1.176676 3.54322,-2.393928 0.50362,-0.70128 0.93824,-1.274959 0.9657,-1.274959 0.0274,0 0.43511,0.192171 0.90622,0.427191 1.11393,0.555718 1.46535,0.391807 2.43197,-1.136054 0.58183,-0.9197 0.98489,-1.266693 1.47119,-1.266693 0.87376,0 1.254,-0.757927 1.254,-2.499763 0,-1.166492 -0.16468,-1.623828 -0.9591,-2.664573 -1.54424,-2.023051 -1.60224,-2.220945 -1.40505,-4.786204 0.15412,-2.005169 0.0966,-2.549175 -0.38532,-3.63857 -0.83297,-1.883155 -1.614,-2.497556 -3.175,-2.497556 -1.11534,0 -1.43874,-0.140823 -2.2495,-0.977305 -0.52073,-0.537286 -1.39774,-1.190534 -1.948553,-1.451903 l -1.001014,-0.475147 -0.999885,1.141016 c -1.204016,1.374194 -1.645186,1.296227 -3.741646,-0.664766 -0.751981,-0.703379 -1.57226,-1.238828 -1.822873,-1.189521 z"
         style="display:inline;fill:#ff00ff;fill-opacity:1;fill-rule:evenodd;stroke:#000000;stroke-width:0;stroke-linecap:butt;stroke-linejoin:miter;stroke-miterlimit:4;stroke-dasharray:none;stroke-opacity:1" />
      <path
         inkscape:connector-curvature="0"
         id="path4814"
         d="m 145.75247,142.11872 c -0.0903,-0.005 -0.19708,0.0149 -0.32851,0.0413 -0.38805,0.0782 -2.22958,0.26931 -4.09225,0.42444 -1.86266,0.15512 -4.02412,0.47137 -4.80328,0.7028 -3.16187,0.93913 -7.1221,4.0816 -9.2053,7.3047 -1.33268,2.06193 -2.05203,3.96828 -2.49315,6.60907 -0.2906,1.73977 -0.27181,2.39168 0.12514,4.35074 0.98625,4.86734 3.26819,7.57116 7.25675,8.59896 2.98586,0.76942 6.89125,-0.15572 10.31932,-2.44464 l 0.91719,-0.6124 0,1.51695 c 0,2.44035 -0.55869,6.2053 -1.10352,7.43699 -0.64866,1.46638 -2.07639,2.67285 -3.16289,2.67285 -0.45994,0 -1.36723,-0.27134 -2.01634,-0.60248 -1.93824,-0.98883 -2.7706,-1.14106 -3.52611,-0.64603 -0.95955,0.62873 -0.755,1.75897 0.46688,2.57969 1.27003,0.85306 3.89018,0.88088 6.07218,0.0645 1.98831,-0.74393 4.17336,-2.71323 5.09104,-4.58887 1.2142,-2.48175 1.55507,-4.86238 1.56046,-10.89587 0.004,-4.69964 0.0714,-5.55469 0.47185,-5.99722 0.2569,-0.28386 0.63788,-0.51594 0.84666,-0.51594 0.20876,0 0.37979,-0.254 0.37979,-0.56444 0,-0.72791 -0.39432,-0.71433 -3.20421,0.11024 -1.2645,0.37108 -3.18812,0.91154 -4.27468,1.2011 -1.6094,0.42889 -1.97553,0.63076 -1.97553,1.0892 0,0.40298 0.16022,0.53834 0.56442,0.47735 3.09454,-0.46693 3.20477,-0.45386 3.43408,0.40349 0.11924,0.44587 0.22112,1.6345 0.226,2.64143 l 0.009,1.83058 -1.54561,1.03684 c -3.60006,2.41428 -7.48694,2.28198 -10.11866,-0.34396 -2.44819,-2.44284 -3.45462,-7.20167 -2.43637,-11.5215 1.27077,-5.39092 5.79589,-9.91173 10.39648,-10.38655 3.05254,-0.31505 4.96906,0.99742 5.97408,4.09222 0.40569,1.24928 0.58471,1.4813 1.08367,1.4045 0.35724,-0.055 0.55824,-0.25921 0.49996,-0.50822 -0.0537,-0.22915 -0.30768,-1.91194 -0.56444,-3.73945 -0.37694,-2.68243 -0.45277,-3.19878 -0.8439,-3.2224 z"
         style="display:inline;fill:#ff00ff;fill-opacity:1;fill-rule:evenodd;stroke:#000000;stroke-width:0;stroke-linecap:butt;stroke-linejoin:miter;stroke-miterlimit:4;stroke-dasharray:none;stroke-opacity:1" />
      <path
         inkscape:connector-curvature="0"
         id="path4810"
         d="m 118.96893,148.26036 c -0.0747,0.005 -0.16942,0.0236 -0.28555,0.0573 -3.6591,1.06085 -5.85687,1.6424 -7.19667,1.9039 -1.46569,0.28607 -1.62275,0.38597 -1.62275,1.03243 0,0.53777 0.11095,0.67267 0.44758,0.5435 0.24638,-0.0946 0.94488,-0.25126 1.55222,-0.34837 0.83549,-0.1336 1.10408,-0.082 1.10352,0.21222 -0.003,1.17377 -8.53228,11.25471 -9.5228,11.25471 -0.35399,0 -0.40011,-0.78662 -0.31363,-5.36222 0.0734,-3.88317 0.013,-5.36222 -0.21994,-5.36222 -0.84218,0 -5.548995,1.55288 -7.404465,2.44298 -3.7211,1.78506 -5.860486,4.6948 -5.616335,7.63874 0.192391,2.32011 1.782798,3.70148 3.195405,2.77592 0.95504,-0.62577 0.86597,-1.44895 -0.296023,-2.73513 -0.543278,-0.60134 -0.987778,-1.39151 -0.987778,-1.75617 0,-0.94261 1.066997,-2.40418 2.600649,-3.56195 1.39717,-1.05474 4.619978,-2.47527 4.924552,-2.17069 0.09971,0.0997 0.193407,5.12655 0.208365,11.17093 l 0.02766,10.98958 -0.809188,0.84667 c -0.445092,0.4657 -1.175342,0.99868 -1.622778,1.18401 -0.488272,0.20225 -0.81359,0.54883 -0.81359,0.86706 0,0.68563 0.250106,0.66912 2.195492,-0.14607 2.071174,-0.8679 4.177454,-1.48673 6.365974,-1.87028 2.47794,-0.43428 2.72742,-0.53517 2.72742,-1.10353 0,-0.45282 -0.20873,-0.49304 -1.93037,-0.36986 l -1.93091,0.13835 -0.18463,-3.20973 c -0.24183,-4.19706 -0.23856,-8.99528 0.006,-8.99528 0.2906,0 2.91456,2.2608 3.9307,3.38667 0.49031,0.54328 1.90822,2.26197 3.15073,3.81937 4.18358,5.24377 6.99494,7.35156 10.68643,8.01136 3.18832,0.56987 6.87917,-0.90141 7.98325,-3.18216 0.90754,-1.87473 0.35817,-2.95507 -1.39127,-2.73624 -0.65422,0.0818 -1.12889,0.87533 -1.12889,1.88681 0,0.56364 -0.26317,1.22374 -0.68131,1.70987 -0.60161,0.69941 -0.87339,0.7921 -2.32834,0.7921 -3.23723,0 -5.58833,-1.85004 -10.26803,-8.07861 -1.44328,-1.921 -3.55747,-4.41869 -4.69801,-5.55019 l -2.07366,-2.05713 1.94688,-2.20928 c 1.07073,-1.21508 2.92893,-3.52796 4.12917,-5.13952 2.70211,-3.62813 3.6276,-4.61907 5.15386,-5.52043 1.05068,-0.62049 1.51401,-1.23581 0.99108,-1.19944 z"
         style="display:inline;fill:#ff00ff;fill-opacity:1;fill-rule:evenodd;stroke:#000000;stroke-width:0;stroke-linecap:butt;stroke-linejoin:miter;stroke-miterlimit:4;stroke-dasharray:none;stroke-opacity:1" />
      <path
         inkscape:connector-curvature="0"
         id="path4808"
         d="m 130.86801,152.976 c -0.11593,-0.006 -0.23317,0.27232 -0.37981,0.76785 -1.16699,3.94345 -0.38219,9.02971 1.75235,11.35944 0.80927,0.88332 1.10125,0.793 0.91225,-0.28222 -0.0887,-0.50447 -0.34417,-1.93322 -0.56721,-3.175 -0.22301,-1.24178 -0.61231,-3.52778 -0.86541,-5.08 -0.41325,-2.53438 -0.63085,-3.57903 -0.85217,-3.59007 z"
         style="display:inline;fill:#ff00ff;fill-opacity:1;fill-rule:evenodd;stroke:#000000;stroke-width:0;stroke-linecap:butt;stroke-linejoin:miter;stroke-miterlimit:4;stroke-dasharray:none;stroke-opacity:1" />
      <path
         inkscape:connector-curvature="0"
         id="path4806"
         d="m 115.57896,153.32989 c -0.11644,0.005 -0.97369,1.05116 -1.905,2.32502 -0.93136,1.27387 -2.39905,3.14286 -3.26155,4.15341 -0.86247,1.01055 -1.65696,1.98477 -1.76499,2.16462 -0.11402,0.18975 0.42576,0.96976 1.28597,1.85815 0.81531,0.84201 2.75277,3.19198 4.30499,5.22276 2.24415,2.93598 2.87435,3.60034 3.07634,3.24225 0.15225,-0.26993 0.12169,-2.77598 -0.0755,-6.25574 l 0,0 c -0.24144,-4.2603 -0.47814,-6.28178 -0.88911,-7.59465 -0.30799,-0.98397 -0.56002,-2.53971 -0.56002,-3.45722 0,-0.9175 -0.0953,-1.66371 -0.21169,-1.6586 z"
         style="display:inline;fill:#ff00ff;fill-opacity:1;fill-rule:evenodd;stroke:#000000;stroke-width:0;stroke-linecap:butt;stroke-linejoin:miter;stroke-miterlimit:4;stroke-dasharray:none;stroke-opacity:1" />
      <path
         inkscape:connector-curvature="0"
         id="path4802"
         d="m 80.371714,158.12381 c -8.671673,0.01 -17.074444,6.67404 -17.074444,13.54115 0,3.9705 2.465803,7.62 5.148918,7.62 2.171023,0 2.067532,-1.56594 -0.173651,-2.62709 -2.630988,-1.24572 -3.608155,-3.17527 -3.18214,-6.28331 0.68501,-4.9978 7.398653,-10.28071 13.064349,-10.28071 3.301209,0 4.915803,1.3344 5.125748,4.23664 0.13064,1.80619 -0.452826,3.26723 -1.824539,4.56627 -0.971832,0.92036 -3.071735,1.90697 -4.076784,1.91547 -0.712245,0.006 -0.740269,-0.0603 -0.917223,-2.1536 -0.100386,-1.18758 -0.182456,-3.16924 -0.182456,-4.40421 0,-1.68944 -0.08729,-2.20762 -0.352778,-2.09296 -4.084066,1.76433 -4.87649,2.19547 -4.955963,2.6982 -0.06629,0.4193 0.04041,0.51872 0.443173,0.41341 0.291705,-0.0763 0.666863,0.0289 0.833995,0.23371 0.180989,0.22179 0.447012,3.63783 0.657606,8.44682 0.339457,7.75254 0.332204,8.11807 -0.182457,9.17223 -0.331328,0.67859 -1.042359,1.42138 -1.861453,1.94469 -0.948125,0.60574 -1.329605,1.03607 -1.340555,1.51198 -0.01214,0.52659 0.08805,0.62195 0.478987,0.45806 0.271639,-0.11386 1.319389,-0.49877 2.328334,-0.85549 1.008944,-0.35673 2.913944,-0.83308 4.233333,-1.05833 3.158998,-0.53935 4.515556,-1.11225 4.515556,-1.90665 0,-0.47256 -0.11066,-0.56173 -0.493889,-0.39743 -1.436286,0.61579 -2.927887,1.02434 -3.265932,0.89462 -0.294273,-0.11292 -0.424293,-1.39633 -0.563909,-5.57058 -0.09979,-2.98316 -0.113086,-5.53459 -0.02921,-5.67035 0.401574,-0.64974 1.120507,0.0224 3.502971,3.27642 3.080907,4.20801 5.357848,6.55303 8.107821,8.35036 3.666716,2.39648 6.612156,2.99023 9.891014,1.9943 1.542344,-0.46847 2.192954,-0.84354 2.987574,-1.7231 1.10962,-1.22822 1.46787,-2.17909 1.1719,-3.11161 -0.24347,-0.76709 -1.2354,-1.1554 -1.97612,-0.77336 -0.802921,0.41413 -0.978999,0.76826 -0.98391,1.98383 -0.01185,2.94068 -4.196362,3.48742 -7.648645,0.99935 -1.758724,-1.26749 -4.141696,-3.75721 -6.652091,-6.94917 -1.186067,-1.5081 -2.656953,-3.26591 -3.268133,-3.90646 l -1.11125,-1.16472 1.541187,-0.88194 c 2.974905,-1.70206 4.981025,-4.58284 4.992906,-7.16966 0.0079,-1.72012 -0.527021,-2.99273 -1.657491,-3.94395 -1.184007,-0.99628 -2.520837,-1.33597 -5.250321,-1.33283 z"
         style="display:inline;fill:#ff00ff;fill-opacity:1;fill-rule:evenodd;stroke:#000000;stroke-width:0;stroke-linecap:butt;stroke-linejoin:miter;stroke-miterlimit:4;stroke-dasharray:none;stroke-opacity:1" />
      <path
         inkscape:connector-curvature="0"
         id="path4800"
         d="m 98.324264,159.24718 c -0.13795,0 -0.33209,0.43159 -0.431066,0.95912 -0.099,0.52753 -0.422204,1.26684 -0.718227,1.64317 -0.296023,0.37633 -0.878501,1.53486 -1.294807,2.57473 -0.492139,1.22935 -1.090592,2.16589 -1.710973,2.67725 -0.891032,0.73447 -7.564317,3.75621 -9.529402,4.31491 -1.811161,0.51495 -1.809976,0.52046 1.213217,4.27247 4.892773,6.07226 8.097604,8.58371 10.573427,8.28642 0.603165,-0.0725 1.259586,-0.30015 1.459061,-0.50601 0.199136,-0.20594 0.400275,-0.81878 0.446475,-1.36206 0.0644,-0.75777 -0.01298,-0.96079 -0.330736,-0.87202 -0.227895,0.0636 -0.817795,0.17131 -1.311317,0.23978 -0.840148,0.11657 -0.919198,0.0517 -1.241355,-1.02361 -0.406823,-1.35789 -0.182767,-1.75323 1.475063,-2.59898 0.587276,-0.29961 1.199416,-0.79002 1.359831,-1.08975 0.363672,-0.67953 0.402816,-17.51542 0.04081,-17.51542 z"
         style="display:inline;fill:#ff00ff;fill-opacity:1;fill-rule:evenodd;stroke:#000000;stroke-width:0;stroke-linecap:butt;stroke-linejoin:miter;stroke-miterlimit:4;stroke-dasharray:none;stroke-opacity:1" />
      <path
         inkscape:connector-curvature="0"
         id="path4794"
         d="m 104.74812,166.58496 c -0.28434,0 -0.33683,6.53348 -0.0634,7.90057 l 0.18302,0.91612 1.48993,-0.17529 c 1.73036,-0.20336 2.37739,0.20993 2.37739,1.5186 0,1.40564 -0.83197,1.81694 -4.86834,2.40771 -0.7373,0.10791 -1.34055,0.30888 -1.34055,0.44648 0,0.13759 0.12166,0.25025 0.27065,0.25025 0.14898,0 0.41856,0.49153 0.59862,1.09251 0.44701,1.49199 -0.0469,2.89775 -1.54395,4.39484 -1.49979,1.49977 -3.645862,2.20784 -6.618988,2.18447 -4.671822,-0.0367 -9.463984,-2.90412 -13.64203,-8.1624 -1.283349,-1.61513 -1.514094,-1.79753 -1.59193,-1.25732 -0.153078,1.06248 0.731999,3.27906 1.43208,3.58621 0.483446,0.21211 0.669459,0.58267 0.781614,1.55663 0.110688,0.96143 0.481189,1.71207 1.494903,3.02948 1.776363,2.30852 2.52524,2.8332 6.542363,4.58556 1.862666,0.81253 3.545416,1.67658 3.739444,1.91988 0.514096,0.64464 0.420314,2.84125 -0.176953,4.14459 -0.284508,0.62089 -1.364686,1.95233 -2.39999,2.95892 -2.331071,2.26645 -2.588881,3.03326 -2.169583,6.45198 0.164761,1.34335 0.299861,3.24416 0.300425,4.22451 0,0.98034 0.133153,2.02997 0.294894,2.33219 0.447774,0.83666 1.333134,0.21883 1.552787,-1.08369 0.419693,-2.48872 0.826657,-2.74103 1.109049,-0.68791 0.389015,2.82862 2.070156,4.62429 4.649498,4.96644 2.51508,0.33365 3.248377,-0.70214 1.821744,-2.57252 -2.284193,-2.99477 -2.433687,-8.51959 -0.357716,-13.22971 1.176499,-2.66935 3.206839,-6.03992 3.638549,-6.04077 1.08642,-0.002 1.63198,0.83345 2.22417,3.40541 0.98094,4.26049 1.04425,6.04675 0.30262,8.54494 l -0.64217,2.16407 1.09635,3.55148 c 1.33139,4.31243 1.86346,4.84923 2.35094,2.37133 0.18133,-0.92156 0.45303,-1.75208 0.60416,-1.84548 0.1511,-0.0934 0.49504,0.31646 0.76397,0.91061 0.90904,2.00855 1.99153,3.14712 3.26483,3.43297 1.81771,0.40805 4.80213,0.37894 5.392,-0.0524 0.76118,-0.55658 0.16837,-2.11188 -1.12392,-2.94845 -1.34372,-0.86985 -2.55437,-2.88344 -4.36234,-7.25841 l -1.51582,-3.66888 -0.0186,-4.35406 -0.0181,-4.35349 1.55219,-0.522 c 3.68952,-1.23989 3.939,-1.46875 3.94727,-3.62755 0.003,-0.55215 0.25784,-2.38652 0.56829,-4.07624 0.31044,-1.68971 0.56444,-3.85229 0.56444,-4.80549 l 0,-1.73302 -1.54229,-1.06219 c -1.57057,-1.08171 -3.7675,-3.41882 -6.78324,-7.21596 -2.11424,-2.66205 -3.80867,-4.51556 -4.12806,-4.51556 z"
         style="display:inline;fill:#ff00ff;fill-opacity:1;fill-rule:evenodd;stroke:#000000;stroke-width:0;stroke-linecap:butt;stroke-linejoin:miter;stroke-miterlimit:4;stroke-dasharray:none;stroke-opacity:1" />
      <path
         inkscape:connector-curvature="0"
         id="path4792"
         d="m 66.974992,168.62997 c -0.19939,-0.013 -0.459655,0.26732 -0.607991,0.79816 -0.301724,1.07966 -0.275844,3.25302 0.04905,4.12309 0.163209,0.43696 0.575959,1.0113 0.917222,1.27606 0.591227,0.45865 0.624784,0.45547 0.711087,-0.0733 0.04978,-0.30518 -0.108994,-1.51981 -0.352778,-2.69875 -0.243811,-1.17897 -0.443201,-2.45884 -0.443201,-2.84317 0,-0.38463 -0.118308,-0.57198 -0.273389,-0.58208 z"
         style="display:inline;fill:#ff00ff;fill-opacity:1;fill-rule:evenodd;stroke:#000000;stroke-width:0;stroke-linecap:butt;stroke-linejoin:miter;stroke-miterlimit:4;stroke-dasharray:none;stroke-opacity:1" />
      <path
         inkscape:connector-curvature="0"
         id="path4788"
         d="m 132.79449,171.38715 c -1.06784,-0.005 -1.09031,0.1108 -0.59309,3.12153 0.26159,1.584 0.41205,1.93915 0.77611,1.83169 0.24836,-0.0733 0.81088,-0.21878 1.2496,-0.32357 0.63412,-0.15146 0.7686,-0.3137 0.6554,-0.78989 -0.0783,-0.32945 -0.23311,-1.23362 -0.34341,-2.00973 -0.22645,-1.59349 -0.44588,-1.82391 -1.74461,-1.83003 z"
         style="display:inline;fill:#ff00ff;fill-opacity:1;fill-rule:evenodd;stroke:#000000;stroke-width:0;stroke-linecap:butt;stroke-linejoin:miter;stroke-miterlimit:4;stroke-dasharray:none;stroke-opacity:1" />
      <path
         inkscape:connector-curvature="0"
         id="path4857"
         d="m 133.48738,181.28973 c 0.1553,-0.008 0.6793,0.1218 1.26506,0.3164 l 1.21705,0.40404 0.32577,2.80017 c 0.1793,1.54002 0.66644,4.76868 1.0826,7.17462 0.41614,2.40595 0.99583,6.46995 1.28818,9.03111 0.60655,5.3129 1.0747,8.52216 1.2722,8.71967 0.0747,0.0747 1.1185,-0.34293 2.31896,-0.92824 2.77484,-1.35287 3.86351,-1.32718 4.70519,0.11079 0.47529,0.812 0.57821,1.47528 0.57821,3.72897 0,3.83566 -0.18858,3.96844 -4.95376,3.47431 -1.95651,-0.20288 -2.43453,-0.13723 -5.81807,0.80313 -3.83839,1.06676 -5.8692,1.27184 -6.65923,0.67193 -0.69477,-0.5276 -1.00008,-1.59357 -1.21544,-4.24767 l -0.19403,-2.39448 0.80422,-0.5242 c 0.6946,-0.45253 1.27827,-0.51282 4.26971,-0.43932 2.92755,0.0719 3.46549,0.0198 3.46549,-0.33735 0,-1.63633 -2.15804,-17.84933 -3.25326,-24.44198 -0.34812,-2.0955 -0.59185,-3.85532 -0.54184,-3.91032 0.006,-0.007 0.0209,-0.0105 0.043,-0.0116 z"
         style="display:inline;fill:#ff00ff;fill-opacity:1" />
    </g>
  </g>
</svg>
